<?xml version="1.0" standalone="no"?>
<!DOCTYPE svg PUBLIC "-//W3C//DTD SVG 20010904//EN"
 "http://www.w3.org/TR/2001/REC-SVG-20010904/DTD/svg10.dtd">
<svg version="1.0" xmlns="http://www.w3.org/2000/svg"
 width="400.000000pt" height="400.000000pt" viewBox="0 0 400.000000 400.000000"
 preserveAspectRatio="xMidYMid meet">
<metadata>
Created by potrace 1.14, written by Peter Selinger 2001-2017
</metadata>
<g transform="translate(0.000000,400.000000) scale(0.100000,-0.100000)"
fill="#000000" stroke="none">
<path d="M0 3960 c0 -37 2 -40 28 -40 21 0 28 -5 29 -21 1 -12 6 -26 12 -32
14 -14 33 3 28 25 -7 25 17 34 49 20 15 -7 24 -8 24 -2 0 6 13 10 30 10 22 0
28 -4 24 -15 -4 -8 -10 -15 -14 -15 -13 0 -68 -58 -62 -65 24 -24 108 40 97
74 -5 16 1 19 44 23 27 3 63 3 80 0 34 -5 33 2 36 -182 0 -30 4 -60 8 -67 11
-18 -15 -53 -39 -53 -17 0 -21 5 -17 20 8 29 -5 70 -22 70 -8 0 -15 9 -15 19
0 11 -9 23 -20 26 -30 10 -26 38 5 33 24 -5 36 14 16 26 -4 3 -11 19 -14 36
-4 17 -13 30 -21 30 -18 0 -30 -16 -18 -24 5 -3 7 -17 4 -31 -4 -21 -7 -23
-19 -14 -12 10 -13 6 -11 -25 1 -21 6 -40 10 -42 11 -7 10 -34 -2 -34 -5 0
-16 14 -25 30 -17 33 -36 38 -59 15 -9 -9 -17 -11 -21 -5 -3 5 -1 10 4 10 6 0
11 7 11 15 0 9 -9 15 -25 15 -25 0 -30 -18 -12 -48 5 -7 6 -21 2 -31 -3 -11
-2 -22 3 -25 5 -3 9 -18 8 -32 -1 -21 -7 -29 -28 -35 -23 -6 -28 -4 -28 12 0
25 -20 24 -27 -1 -3 -13 -14 -20 -29 -20 l-24 0 0 -134 c0 -141 10 -191 39
-199 14 -3 25 6 40 34 16 28 29 39 46 39 34 0 39 15 14 49 -22 30 -19 51 7 51
8 0 14 4 14 9 0 5 10 12 23 16 l22 8 -22 4 c-13 2 -23 10 -23 16 0 18 99 19
123 2 19 -13 19 -14 -9 -20 -16 -4 -45 -12 -64 -18 -26 -8 -30 -12 -15 -14 65
-11 65 -12 65 -53 0 -46 15 -52 33 -12 6 15 18 33 25 41 11 11 11 15 0 22 -10
7 -10 11 0 21 6 6 12 19 12 28 0 18 28 35 74 45 42 9 62 32 48 56 -7 10 -12
30 -12 45 l0 25 33 -33 c29 -30 57 -47 137 -82 24 -11 279 -13 766 -8 l190 2
42 36 c23 20 39 40 36 46 -5 7 -12 5 -20 -6 -28 -38 -110 -46 -469 -41 -197 2
-363 9 -395 15 -30 6 -78 11 -106 10 -38 0 -53 3 -57 15 -4 8 -12 15 -19 15
-21 0 -61 87 -64 141 -2 27 -6 54 -9 59 -3 4 9 24 27 42 32 33 36 34 98 32 67
-2 173 -21 133 -23 -13 0 -23 -6 -23 -12 0 -7 14 -10 35 -7 25 3 35 0 35 -10
0 -7 6 -12 13 -9 6 2 11 9 10 15 -4 19 37 45 75 48 20 1 42 2 48 3 6 1 19 17
30 36 21 39 44 44 71 16 40 -42 59 -45 313 -47 135 -2 255 -6 268 -9 13 -3 38
-1 55 4 18 6 45 13 60 16 76 15 -11 22 -293 23 -171 1 -320 4 -331 7 -38 12
-18 24 49 28 37 2 -213 4 -555 5 l-623 2 0 -40z m590 26 c0 -2 -7 -6 -15 -10
-8 -3 -15 -1 -15 4 0 6 7 10 15 10 8 0 15 -2 15 -4z m347 -2 c-3 -3 -12 -4
-19 -1 -8 3 -5 6 6 6 11 1 17 -2 13 -5z m-637 -320 c0 -6 10 -19 23 -27 18
-13 19 -16 5 -16 -44 -2 -89 43 -72 71 6 10 44 -13 44 -28z m-242 -200 c31 -9
28 -21 -8 -26 -24 -4 -30 -1 -30 14 0 20 4 21 38 12z"/>
<path d="M1498 3993 c7 -3 16 -2 19 1 4 3 -2 6 -13 5 -11 0 -14 -3 -6 -6z"/>
<path d="M1763 3993 c9 -2 23 -2 30 0 6 3 -1 5 -18 5 -16 0 -22 -2 -12 -5z"/>
<path d="M1883 3993 c32 -2 81 -2 110 0 29 2 3 3 -58 3 -60 0 -84 -1 -52 -3z"/>
<path d="M2195 3993 c39 -2 84 -10 100 -17 17 -8 73 -18 125 -22 116 -9 120
-9 250 -2 58 3 116 2 130 -1 14 -4 43 -4 65 0 89 16 400 32 760 38 278 5 127
7 -560 7 -517 0 -908 -1 -870 -3z"/>
<path d="M1822 3962 c-77 -22 79 -37 173 -17 l40 8 -40 8 c-48 9 -141 10 -173
1z"/>
<path d="M2058 3948 c17 -8 26 -8 34 0 9 9 4 12 -22 11 -33 0 -34 -1 -12 -11z"/>
<path d="M1685 3880 c-7 -23 2 -43 16 -35 12 8 12 42 0 50 -5 3 -12 -4 -16
-15z"/>
<path d="M552 3807 c-16 -19 7 -40 28 -27 13 8 13 11 -1 25 -13 14 -17 14 -27
2z"/>
<path d="M2915 3769 c-31 -16 -54 -23 -61 -18 -6 5 -14 6 -17 2 -4 -3 -24 -6
-45 -5 -30 1 -45 -6 -82 -38 -24 -21 -46 -37 -48 -35 -6 6 -62 -24 -62 -33 0
-13 -84 -52 -111 -52 -21 -1 -22 -2 -6 -11 24 -14 21 -28 -13 -73 -17 -22 -30
-45 -30 -52 0 -6 -6 -17 -14 -23 -7 -6 -16 -29 -20 -50 -3 -21 -12 -44 -20
-50 -26 -22 -86 -234 -85 -303 1 -28 7 -41 25 -53 14 -9 32 -33 42 -53 9 -20
20 -40 25 -43 4 -3 9 -28 12 -55 2 -27 9 -92 15 -144 9 -86 9 -96 -7 -108 -9
-7 -17 -24 -18 -39 0 -32 -37 -61 -87 -69 -31 -6 -40 -2 -62 21 -17 18 -26 23
-26 13 0 -8 9 -24 21 -37 19 -20 27 -21 76 -15 l56 7 -7 -27 c-5 -19 -1 -30
14 -43 17 -15 20 -30 20 -93 0 -41 -8 -123 -17 -182 l-18 -108 -95 -31 c-52
-17 -115 -46 -139 -63 -60 -43 -54 -41 -171 -77 -58 -17 -134 -42 -170 -54
-250 -84 -382 -125 -407 -125 -15 0 -55 -11 -88 -24 -33 -14 -107 -41 -165
-62 -58 -20 -125 -47 -149 -60 -24 -13 -54 -24 -68 -24 -37 0 -79 -26 -101
-62 -34 -56 -55 -158 -103 -508 -16 -120 -5 -110 -127 -110 -156 1 -341 22
-373 44 -33 21 -38 38 -45 151 -7 113 -12 141 -25 128 -11 -11 -8 -301 2 -293
4 3 15 -2 25 -11 43 -37 82 -42 289 -43 112 -1 207 -4 211 -8 10 -11 -15 -263
-32 -320 -8 -26 -14 -62 -14 -81 0 -44 -18 -147 -30 -172 -6 -11 -16 -40 -23
-65 -9 -31 -21 -49 -42 -61 -28 -17 -37 -17 -151 0 -67 10 -126 21 -133 25 -6
4 -11 19 -11 33 0 19 3 23 13 16 42 -33 97 -14 97 34 0 12 5 23 11 23 7 0 9
11 6 28 -3 16 -3 54 0 85 6 59 21 75 65 68 10 -1 28 5 40 13 l21 15 -24 10
c-34 12 -143 16 -207 7 -33 -5 -57 -4 -65 2 -8 7 -28 7 -60 0 -53 -11 -77 -1
-77 33 0 11 -4 19 -10 19 -5 0 -10 -6 -10 -14 0 -7 -7 -19 -15 -26 -8 -7 -15
-24 -15 -38 0 -23 3 -24 37 -19 56 10 63 -2 63 -109 0 -51 -4 -95 -9 -98 -11
-7 -21 17 -21 50 0 13 -4 24 -10 24 -5 0 -10 7 -10 15 0 9 -9 15 -24 15 -22 0
-23 -3 -25 -80 l-2 -80 30 0 c31 0 68 -27 54 -41 -4 -4 -24 -9 -43 -11 -24 -2
-36 -9 -38 -21 -2 -10 3 -17 12 -17 9 0 16 -5 16 -11 0 -6 14 -9 33 -7 22 2
35 10 42 26 9 20 15 23 46 19 20 -3 50 -15 66 -26 26 -20 39 -22 129 -18 56 3
110 10 122 16 21 11 27 6 23 -21 0 -5 67 -8 151 -8 136 0 150 2 132 15 -17 13
-18 14 -1 15 10 0 20 -7 23 -15 9 -23 23 -8 18 20 -4 23 -2 24 28 18 47 -8 70
-22 65 -38 -4 -10 17 -13 97 -14 l103 -2 -7 51 c-5 43 -4 50 10 50 22 0 55 36
41 45 -6 3 -15 4 -20 0 -25 -15 -40 75 -16 95 13 10 19 10 34 -4 23 -21 34 -8
26 27 -5 18 -13 25 -31 25 -13 0 -22 -3 -20 -7 2 -3 -12 -6 -31 -6 -22 0 -38
6 -44 18 -6 9 -16 17 -23 17 -17 0 -106 94 -106 112 0 25 44 58 77 58 18 0 47
-12 72 -30 23 -17 46 -28 50 -25 5 3 16 25 24 50 18 51 101 158 179 230 61 57
255 220 308 260 166 125 313 230 355 254 43 24 53 36 67 77 9 27 33 96 53 154
20 58 43 132 50 165 14 63 54 163 77 190 23 27 89 90 105 99 13 7 15 4 10 -20
-17 -83 -29 -149 -42 -239 -24 -168 -53 -275 -99 -370 -56 -114 -131 -214
-281 -369 -16 -18 -41 -46 -55 -63 -49 -60 -176 -199 -246 -269 -72 -72 -106
-91 -199 -110 -31 -7 -44 -16 -57 -42 -9 -18 -48 -64 -87 -100 -67 -64 -85
-92 -60 -92 6 0 72 39 146 87 230 151 495 327 578 385 44 31 104 74 134 95
187 131 271 200 271 221 0 4 -11 32 -26 61 -36 75 -25 85 21 19 36 -51 41 -55
66 -48 16 5 49 23 75 42 51 36 204 140 379 258 150 101 244 171 283 210 l32
34 0 -31 c0 -36 -49 -136 -88 -178 -15 -16 -50 -48 -77 -70 -28 -22 -52 -42
-55 -45 -6 -6 -55 -44 -215 -164 -71 -54 -150 -118 -175 -142 -25 -24 -51 -44
-58 -44 -24 0 -11 -29 33 -71 50 -48 55 -59 24 -59 -16 0 -19 -4 -14 -20 5
-17 2 -20 -24 -20 -20 0 -31 5 -31 14 0 8 -4 16 -8 18 -4 1 -18 20 -31 41 -12
20 -26 37 -30 37 -5 0 -43 -25 -85 -55 -42 -30 -79 -55 -82 -55 -3 0 -37 -24
-74 -52 -38 -29 -103 -78 -146 -108 -42 -30 -101 -73 -130 -95 -30 -22 -86
-62 -124 -90 -65 -45 -147 -104 -192 -137 -10 -7 -39 -28 -65 -46 -27 -19 -95
-67 -153 -108 -57 -41 -108 -74 -112 -74 -4 0 -8 -9 -8 -20 0 -20 8 -20 1370
-20 l1370 0 0 718 -1 717 -289 143 c-159 79 -309 158 -332 175 -24 18 -58 42
-76 52 -25 15 -32 25 -28 40 3 11 6 27 6 36 0 9 20 36 45 60 32 31 44 49 40
64 -3 11 -2 14 1 7 5 -10 9 -10 20 -1 8 6 14 16 14 21 0 6 -7 5 -15 -2 -12
-10 -15 -9 -16 6 0 16 -2 16 -9 -3 -6 -14 -18 -23 -30 -23 -12 0 -19 -4 -16
-9 3 -5 -3 -11 -14 -14 -34 -9 -43 17 -37 98 9 107 -5 164 -54 214 -28 29 -49
41 -69 41 -15 0 -44 7 -63 15 -49 20 -92 19 -165 -6 -88 -30 -84 -50 11 -48
60 2 83 -3 136 -27 34 -15 58 -30 52 -32 -8 -3 -5 -9 6 -17 10 -7 15 -17 11
-21 -4 -4 -13 -2 -20 3 -26 20 -117 37 -146 27 -36 -13 -37 -53 -2 -71 55 -27
117 -53 126 -53 5 0 15 -14 23 -30 10 -24 10 -34 1 -45 -6 -8 -10 -29 -8 -47
2 -25 -2 -35 -18 -43 -12 -6 -29 -17 -38 -24 -16 -13 -79 -8 -101 8 -13 10
-119 31 -156 31 -19 0 -43 15 -78 47 -28 26 -51 53 -51 59 0 17 -80 114 -93
114 -7 0 -29 30 -51 65 -21 36 -44 65 -51 65 -7 0 -14 8 -16 18 -11 49 6 345
20 377 5 11 17 54 27 95 9 41 25 92 35 112 11 21 19 44 19 52 0 25 33 86 47
86 7 0 17 8 22 18 15 28 57 26 80 -5 12 -14 21 -22 21 -17 1 5 10 -2 20 -15
19 -23 22 -23 84 -11 76 14 89 11 140 -35 l40 -35 -35 5 c-18 4 -53 11 -76 17
-50 12 -100 4 -130 -21 -13 -11 -23 -21 -23 -24 0 -8 51 -19 96 -23 23 -1 64
-13 90 -26 l49 -23 -42 -3 c-75 -5 -42 -32 40 -32 25 0 40 5 44 16 3 8 12 13
19 10 8 -3 14 -1 14 4 0 5 26 22 58 37 41 20 62 37 74 62 21 43 17 49 -64 85
-35 16 -71 32 -80 37 -10 5 -26 13 -35 17 -10 5 -37 18 -60 30 -27 14 -60 22
-92 22 -48 0 -51 2 -51 25 0 14 4 33 9 43 27 49 36 140 16 154 -5 4 3 11 18
17 15 6 27 14 27 19 0 4 14 9 32 10 18 2 46 9 63 18 39 20 155 31 155 15 0 -6
7 -11 16 -11 8 0 12 5 9 10 -3 6 0 10 7 10 21 0 98 -32 98 -41 0 -5 8 -9 18
-9 10 0 33 -13 52 -30 19 -16 38 -29 42 -30 19 -1 78 -66 78 -87 0 -13 6 -23
13 -23 8 0 7 -4 -3 -10 -8 -5 -10 -10 -5 -10 6 0 11 -36 13 -79 3 -71 1 -82
-17 -98 -12 -9 -21 -28 -21 -42 0 -22 -3 -23 -37 -17 -21 3 -50 6 -65 6 -18 0
-28 5 -28 15 0 28 -18 15 -34 -25 -19 -49 -22 -205 -4 -265 11 -35 12 -37 16
-15 6 40 22 40 76 1 28 -21 71 -43 96 -49 79 -18 123 -39 135 -63 12 -22 13
-22 18 -3 3 10 3 1 0 -21 -7 -59 -52 -214 -74 -260 -10 -22 -19 -47 -19 -55 0
-8 -11 -35 -25 -59 -14 -23 -25 -51 -25 -61 0 -24 25 -43 49 -35 19 6 51 60
51 88 0 8 7 28 15 43 8 16 15 38 15 49 0 11 9 45 21 75 12 30 28 73 36 95 9
22 17 74 18 115 2 68 8 94 34 155 5 11 19 43 30 70 36 84 31 80 107 77 88 -5
124 8 124 44 0 20 -4 25 -17 20 -9 -4 -35 -11 -58 -16 -23 -5 -55 -14 -70 -20
l-28 -11 6 42 c3 22 13 46 22 53 14 10 16 23 12 65 -3 29 -7 55 -11 58 -3 3
-1 13 3 22 13 24 -11 120 -34 137 -16 12 -17 18 -7 39 20 43 14 78 -18 112
-36 38 -36 45 -8 83 27 38 21 44 -25 25 -45 -19 -66 -20 -49 -3 7 7 8 17 2 29
-6 9 -7 31 -4 47 l6 30 109 1 c107 1 151 9 164 31 15 24 -13 27 -142 14 -72
-7 -144 -10 -160 -8 -62 8 -93 17 -87 26 3 5 0 15 -6 23 -10 12 -10 18 0 30
20 24 4 30 -26 10 -20 -13 -28 -14 -34 -5 -4 6 -10 11 -14 10 -15 -4 -86 13
-86 20 0 5 -15 9 -32 9 -71 0 -195 8 -204 13 -31 18 -74 18 -108 -1 -27 -16
-36 -17 -36 -7 0 25 -44 22 -95 -5z m383 -989 c-35 -35 -38 -36 -38 -10 0 20
24 39 52 40 12 0 9 -7 -14 -30z m101 -62 c13 -10 30 -18 37 -18 15 0 37 -34
28 -43 -6 -6 -71 28 -129 67 -19 13 -32 26 -29 29 8 8 65 -13 93 -35z m-349
-1704 c0 -3 -11 -20 -25 -38 -14 -18 -25 -36 -25 -39 0 -3 -14 -30 -31 -58
-17 -29 -31 -60 -32 -70 -1 -10 -5 -15 -9 -13 -4 3 -17 -7 -30 -21 -12 -14
-29 -25 -37 -26 -12 0 -13 -2 -3 -6 8 -3 27 4 43 16 41 30 38 4 -4 -43 -25
-26 -42 -36 -64 -36 -18 0 -33 -6 -37 -15 -3 -8 -13 -15 -23 -15 -16 0 -16 2
-3 11 11 8 7 9 -18 5 -23 -4 -31 -2 -26 6 5 8 2 9 -9 5 -10 -3 -17 -2 -17 3 0
5 -6 7 -13 5 -6 -3 -18 4 -25 16 -13 21 -12 21 42 16 31 -2 59 -1 62 4 3 5 -6
9 -19 9 -28 0 -87 19 -87 28 0 4 33 6 72 4 93 -4 131 16 173 86 16 28 44 68
62 89 18 21 40 48 50 60 17 22 33 30 33 17z m-350 -186 c0 -24 -4 -28 -30 -28
-22 0 -30 5 -30 18 0 10 3 22 8 26 4 4 8 12 8 17 1 5 2 11 3 14 0 3 10 0 21
-7 12 -8 20 -24 20 -40z m320 -163 c0 -8 -2 -15 -4 -15 -2 0 -11 -3 -20 -6
-10 -4 -16 -1 -16 9 0 14 13 24 33 26 4 1 7 -6 7 -14z m20 -18 c0 -14 -42 -47
-59 -47 -20 0 -21 1 -7 16 9 8 20 13 25 10 5 -3 14 1 21 9 12 14 20 19 20 12z
m-36 -72 c-4 -8 -10 -15 -15 -15 -5 0 -9 7 -9 15 0 8 7 15 15 15 9 0 12 -6 9
-15z m-304 -5 c0 -6 8 -5 19 2 15 9 25 9 48 -2 l28 -14 -35 -7 c-19 -3 -31 -7
-27 -8 9 -1 -17 -31 -27 -31 -3 0 -6 7 -6 16 0 8 5 12 10 9 6 -3 10 -2 10 4 0
5 -9 13 -20 16 -21 7 -28 25 -10 25 6 0 10 -5 10 -10z m-10 -36 c0 -8 -5 -12
-10 -9 -6 4 -8 11 -5 16 9 14 15 11 15 -7z m314 5 c-3 -5 -14 -9 -25 -9 -10 0
-19 4 -19 9 0 5 11 9 25 9 13 0 22 -4 19 -9z m-304 -84 c0 -10 -7 -11 -35 -2
-19 6 -35 13 -35 17 0 3 16 4 35 2 20 -2 35 -10 35 -17z m250 11 c0 -3 -4 -8
-10 -11 -5 -3 -10 -1 -10 4 0 6 5 11 10 11 6 0 10 -2 10 -4z m-240 -52 c0 -2
-9 -4 -21 -4 -11 0 -18 4 -14 10 5 8 35 3 35 -6z m227 10 c-3 -3 -12 -4 -19
-1 -8 3 -5 6 6 6 11 1 17 -2 13 -5z m-49 -59 c-3 -3 -9 2 -12 12 -6 14 -5 15
5 6 7 -7 10 -15 7 -18z m-2542 4 c5 -9 -1 -10 -21 -5 l-29 7 25 -21 c21 -19
21 -21 4 -16 -19 6 -19 5 -2 -8 15 -11 16 -19 8 -33 -6 -10 -11 -14 -11 -9 0
5 -7 3 -16 -5 -13 -10 -17 -10 -25 2 -5 8 -7 20 -4 27 2 6 -2 12 -10 12 -20 0
-24 11 -14 38 7 18 16 22 48 22 22 0 43 -5 47 -11z m2316 -30 c-26 -24 -31
-24 -28 -1 2 9 -2 21 -8 25 -6 5 -2 6 11 2 12 -3 25 -1 29 7 6 9 9 9 12 -1 2
-7 -5 -21 -16 -32z m258 1 c0 -5 -7 -10 -15 -10 -8 0 -15 -6 -15 -12 0 -9 -3
-8 -10 2 -7 11 -5 17 8 22 25 10 32 9 32 -2z m-2700 -57 c-1 -28 -3 -34 -10
-22 -8 14 -3 59 6 59 2 0 4 -17 4 -37z m780 -46 c0 -7 9 -19 20 -27 11 -8 20
-23 20 -33 0 -15 -3 -17 -13 -9 -10 8 -16 6 -25 -9 -10 -15 -23 -19 -65 -19
-28 1 -65 8 -82 16 -16 8 -22 12 -13 10 12 -4 15 0 11 10 -3 7 -9 14 -13 14
-5 0 -6 8 -3 18 4 16 14 18 69 16 36 -2 62 1 59 6 -3 4 1 11 7 13 22 9 28 8
28 -6z m-680 -22 c0 -14 -4 -25 -10 -25 -5 0 -10 11 -10 25 0 14 5 25 10 25 6
0 10 -11 10 -25z m443 -22 c-7 -2 -21 -2 -30 0 -10 3 -4 5 12 5 17 0 24 -2 18
-5z m2019 -20 c-10 -4 -10 -8 -1 -19 9 -11 8 -15 -5 -20 -11 -4 -15 -13 -11
-25 4 -11 2 -19 -6 -19 -8 0 -9 -3 0 -14 15 -18 -12 -41 -36 -31 -17 6 -17 7
1 21 19 14 19 14 -2 14 -12 0 -22 5 -22 10 0 6 7 10 15 10 8 0 15 7 15 15 0 8
7 15 15 15 8 0 15 7 15 15 0 8 -4 15 -10 15 -5 0 -2 9 7 20 13 14 20 17 28 9
7 -8 6 -13 -3 -16z m-2075 11 c-3 -3 -12 -4 -19 -1 -8 3 -5 6 6 6 11 1 17 -2
13 -5z m20 -96 c-3 -7 -5 -2 -5 12 0 14 2 19 5 13 2 -7 2 -19 0 -25z m336 -33
c-7 -21 -13 -19 -13 6 0 11 4 18 10 14 5 -3 7 -12 3 -20z m-263 -5 c0 -5 -4
-10 -10 -10 -5 0 -10 5 -10 10 0 6 5 10 10 10 6 0 10 -4 10 -10z"/>
<path d="M2795 730 c-19 -8 -19 -9 2 -9 12 -1 25 4 28 9 7 12 -2 12 -30 0z"/>
<path d="M1730 3590 c-13 -8 -13 -11 0 -24 13 -13 42 -14 205 -6 105 5 197 9
205 8 71 -4 295 4 308 11 11 7 -102 10 -329 10 -191 1 -353 3 -360 6 -8 3 -21
0 -29 -5z"/>
<path d="M987 3355 c-8 -18 11 -31 25 -17 11 11 3 32 -12 32 -4 0 -10 -7 -13
-15z"/>
<path d="M217 3293 c-12 -11 -8 -23 8 -23 8 0 15 7 15 15 0 16 -12 20 -23 8z"/>
<path d="M50 3240 c0 -5 -11 -10 -25 -10 -22 0 -25 -4 -25 -34 0 -25 5 -36 18
-39 9 -3 114 -4 232 -3 l216 1 0 -50 c0 -48 30 -135 46 -135 4 0 8 15 8 33 1
17 7 43 14 56 8 14 12 31 9 38 -18 46 73 67 276 65 97 -1 141 8 141 26 0 4
-114 8 -252 8 -388 1 -524 9 -589 33 -61 24 -69 25 -69 11z"/>
<path d="M1325 3190 c-51 -5 -59 -7 -30 -9 22 -1 62 -5 89 -7 37 -4 47 -2 44
8 -6 16 -14 16 -103 8z"/>
<path d="M1570 3190 c-34 -7 -34 -7 13 -9 26 0 47 4 47 9 0 11 -8 11 -60 0z"/>
<path d="M1810 3191 l-115 -6 175 -8 c115 -6 184 -5 200 2 21 8 17 10 -31 10
-31 1 -69 3 -85 4 -16 2 -81 1 -144 -2z"/>
<path d="M1128 3183 c7 -3 16 -2 19 1 4 3 -2 6 -13 5 -11 0 -14 -3 -6 -6z"/>
<path d="M0 3044 c0 -39 64 -59 75 -23 8 25 9 25 -37 33 -32 6 -38 4 -38 -10z"/>
<path d="M2266 2952 c-30 -34 -60 -182 -36 -182 6 0 10 9 10 19 0 30 11 51 26
51 7 0 21 11 30 25 20 31 38 32 52 3 10 -22 11 -23 11 -2 1 34 -20 84 -39 94
-26 14 -35 13 -54 -8z"/>
<path d="M0 2829 c0 -5 5 -7 10 -4 5 3 10 8 10 11 0 2 -4 4 -10 4 -5 0 -10 -5
-10 -11z"/>
<path d="M575 2830 c-10 -16 9 -33 30 -28 16 3 15 5 -3 21 -14 13 -22 15 -27
7z"/>
<path d="M10 2802 c-6 -2 -10 -19 -10 -38 0 -31 2 -34 19 -24 11 5 53 10 93
11 131 1 351 23 355 35 3 8 -17 12 -59 12 -35 0 -136 1 -226 3 -89 2 -167 3
-172 1z"/>
<path d="M668 2789 c20 -6 44 -6 65 0 28 8 24 9 -33 9 -57 0 -61 -1 -32 -9z"/>
<path d="M1005 2790 c3 -5 12 -10 20 -10 8 0 17 5 20 10 4 6 -5 10 -20 10 -15
0 -24 -4 -20 -10z"/>
<path d="M1260 2790 c-15 -10 -15 -10 25 -10 3 0 5 3 6 7 1 12 -15 13 -31 3z"/>
<path d="M2360 2791 c0 -6 -11 -17 -25 -23 -15 -6 -25 -20 -26 -32 0 -20 -1
-20 -10 2 -15 39 -44 24 -46 -23 -2 -38 -2 -39 8 -13 9 24 14 26 30 17 16 -8
27 -4 60 22 22 17 38 36 36 42 -5 15 -27 21 -27 8z"/>
<path d="M968 2783 c7 -3 16 -2 19 1 4 3 -2 6 -13 5 -11 0 -14 -3 -6 -6z"/>
<path d="M2220 2671 c0 -5 5 -13 10 -16 6 -3 10 -2 10 4 0 5 -4 13 -10 16 -5
3 -10 2 -10 -4z"/>
<path d="M3065 2587 c-53 -21 -75 -37 -75 -56 0 -20 25 -35 42 -25 6 4 25 7
42 6 25 -1 44 -14 97 -71 36 -39 72 -71 80 -71 46 1 52 38 23 145 -14 51 -23
69 -34 66 -70 -18 -91 -18 -114 0 -13 11 -26 19 -28 18 -1 0 -16 -6 -33 -12z"/>
<path d="M1085 2430 c-3 -5 -1 -10 4 -10 6 0 11 5 11 10 0 6 -2 10 -4 10 -3 0
-8 -4 -11 -10z"/>
<path d="M0 2383 l0 -34 48 7 c26 4 90 8 142 10 52 1 144 5 203 8 83 4 117 2
144 -9 19 -8 32 -19 28 -25 -3 -5 -2 -10 3 -10 14 0 75 27 85 37 5 4 45 15 90
24 l82 17 -90 1 c-92 2 -514 1 -550 0 -11 -1 -57 1 -102 4 l-83 5 0 -35z"/>
<path d="M1282 2411 c-13 -3 -23 -10 -23 -16 0 -16 28 -17 57 -2 23 12 24 15
8 19 -11 2 -29 2 -42 -1z"/>
<path d="M1700 2411 c-61 -6 -63 -7 -30 -14 42 -11 81 -10 180 1 l75 9 -67 1
c-36 1 -72 3 -80 5 -7 2 -42 1 -78 -2z"/>
<path d="M898 2403 c6 -2 18 -2 25 0 6 3 1 5 -13 5 -14 0 -19 -2 -12 -5z"/>
<path d="M1528 2403 c7 -3 16 -2 19 1 4 3 -2 6 -13 5 -11 0 -14 -3 -6 -6z"/>
<path d="M3424 2275 c-16 -12 -17 -14 -3 -15 9 0 19 7 23 15 7 19 5 19 -20 0z"/>
<path d="M3342 2181 c-11 -6 -10 -10 4 -15 20 -8 32 0 18 14 -5 5 -15 5 -22 1z"/>
<path d="M1762 2068 c3 -7 22 -16 44 -20 90 -18 154 -26 171 -23 63 13 73 17
68 25 -3 5 -47 7 -103 3 -79 -5 -104 -3 -129 11 -38 19 -56 21 -51 4z"/>
<path d="M1305 2050 c-3 -5 1 -10 10 -10 9 0 13 5 10 10 -3 6 -8 10 -10 10 -2
0 -7 -4 -10 -10z"/>
<path d="M0 2026 c0 -28 6 -31 29 -17 9 6 22 6 31 1 9 -5 22 -5 29 0 8 4 33 1
58 -7 33 -11 48 -12 56 -4 17 17 -2 28 -58 35 -157 20 -145 21 -145 -8z"/>
<path d="M1410 2040 c0 -5 7 -10 16 -10 8 0 12 5 9 10 -3 6 -10 10 -16 10 -5
0 -9 -4 -9 -10z"/>
<path d="M1525 2043 c-44 -11 -31 -18 25 -15 33 2 60 8 60 13 0 9 -49 10 -85
2z"/>
<path d="M1144 2034 c-7 -3 -5 -18 9 -45 16 -33 22 -37 34 -27 20 16 44 64 36
72 -7 7 -62 7 -79 0z"/>
<path d="M247 2024 c-19 -19 2 -24 113 -24 102 0 120 2 120 15 0 13 -10 15
-62 10 -71 -7 -68 -7 -123 1 -22 3 -43 2 -48 -2z"/>
<path d="M15 1980 c-8 -12 20 -24 35 -15 5 3 10 10 10 16 0 12 -37 12 -45 -1z"/>
<path d="M8 1893 c-5 -133 -3 -291 4 -287 4 3 24 -2 44 -11 31 -13 43 -13 73
-3 20 7 40 16 46 20 15 13 -15 28 -58 28 -21 0 -44 6 -51 13 -11 11 -23 113
-29 246 -3 56 -27 51 -29 -6z"/>
<path d="M703 1603 c15 -2 37 -2 50 0 12 2 0 4 -28 4 -27 0 -38 -2 -22 -4z"/>
<path d="M571 1211 c-17 -11 -6 -31 17 -31 21 1 54 25 45 33 -9 10 -46 8 -62
-2z"/>
<path d="M122 1203 c-121 -4 -122 -4 -122 -27 0 -23 4 -24 83 -28 50 -3 97 1
122 9 22 6 82 17 134 22 51 6 96 13 99 16 3 3 -26 5 -65 5 -39 0 -83 1 -99 3
-16 2 -84 2 -152 0z"/>
<path d="M0 784 c0 -22 3 -24 28 -18 39 10 75 24 71 28 -2 2 -25 6 -51 8 -45
5 -48 4 -48 -18z"/>
<path d="M520 410 c0 -5 11 -10 25 -10 14 0 25 5 25 10 0 6 -11 10 -25 10 -14
0 -25 -4 -25 -10z"/>
<path d="M13 343 c-21 -8 -16 -43 6 -43 20 0 35 25 25 41 -6 10 -12 10 -31 2z"/>
</g>
</svg>
